<?xml version="1.0" standalone="no"?>
<svg xmlns="http://www.w3.org/2000/svg" viewBox="0 0 150.36 36" width="150.36" height="36"><g fill="#fa7115" color="#fa7115" transform="translate(0 3.9999999999999982) scale(0.2800001)"><svg width="100.0" height="100.0" x="0.0" y="0.0" viewBox="0 0 100 100"><path fill="currentColor" d="M18.709,67.404c0.004,0.012,0.012,0.02,0.02,0.031l0.078-0.031C18.775,67.408,18.74,67.404,18.709,67.404z   M60.97,46.339c-0.016-0.043-1.04-2.585-1.244-3.117l-0.016,0.008c-1.173-2.71-2.39-5.116-3.629-7.247  c-3.058,0.563-6.273,1.42-9.547,2.648c-0.047,0.016-2.589,1.04-3.121,1.248l0.008,0.016c-2.878,1.248-5.413,2.542-7.638,3.864  c0.587,2.44,1.392,5.069,2.452,7.892c0.031,0.082,1.306,3.199,1.338,3.281l-0.008,0.008c1.42,3.262,3.058,6.187,4.795,8.78  c2.323-0.579,4.818-1.353,7.482-2.354c0.082-0.027,3.203-1.306,3.281-1.338l0.008,0.008c3.113-1.349,5.917-2.902,8.416-4.548  C62.98,52.546,62.143,49.468,60.97,46.339z"></path><path fill="currentColor" d="M50,7.848C26.722,7.848,7.848,26.722,7.848,50S26.722,92.152,50,92.152S92.152,73.278,92.152,50  S73.278,7.848,50,7.848z M86.661,36.585c0,1.713-0.778,3.242-2.002,4.251v0.004c-0.008,0.004-0.012,0.008-0.02,0.012  c-0.954,0.786-2.174,1.255-3.504,1.255c-3.051,0-5.522-2.472-5.522-5.522c0-3.051,2.472-5.526,5.522-5.526  S86.661,33.535,86.661,36.585z M77.545,26.789c0.008,0.008,0.012,0.012,0.02,0.02c0.008,0.008,0.016,0.016,0.02,0.023  c0.825,0.872,1.603,1.776,2.331,2.718c-0.09,0.016-0.176,0.031-0.262,0.047c-1.036,0.207-1.991,0.637-2.808,1.244  c-0.051,0.031-0.098,0.066-0.145,0.109c-0.485-0.688-0.989-1.353-1.521-1.998c-0.008-0.008-0.016-0.02-0.023-0.027  c-7.615-7.982-19.363-12.781-30.384-11.4c0-0.02-0.004-0.035-0.008-0.055c-0.016-0.086-0.043-0.192-0.074-0.309  c-0.098-0.43-0.242-0.849-0.426-1.24c0-0.004-0.004-0.004-0.004-0.008c-0.063-0.137-0.129-0.27-0.199-0.403v-0.004  c-0.055-0.219-0.125-0.434-0.207-0.649c-0.012-0.031-0.023-0.063-0.035-0.086c-0.012-0.035-0.023-0.063-0.031-0.082  c-0.035-0.086-0.078-0.164-0.117-0.246c-0.004-0.008-0.008-0.02-0.012-0.027C56.402,12.13,69.375,16.96,77.545,26.789z   M37.81,13.323c3.051,0,5.526,2.472,5.526,5.522c0,3.054-2.476,5.526-5.526,5.526c-3.051,0-5.526-2.472-5.526-5.526  C32.283,15.795,34.759,13.323,37.81,13.323z M20.871,28.603c0.023-0.035,0.051-0.07,0.074-0.106  c2.605-3.872,5.906-7.177,9.793-9.554c0,0,0.004,0,0.004-0.004c0.004,0.125,0.008,0.25,0.016,0.375  c0.066,1.044,0.36,2.026,0.829,2.894c0.055,0.098,0.106,0.192,0.164,0.282c-2.976,1.987-5.55,4.419-7.669,7.173c0,0,0,0-0.004,0.004  c-5.096,7.157-7.529,16.582-6.285,25.358c-0.031,0-0.067,0.008-0.098,0.016h-0.004c-0.055,0.012-0.137,0.027-0.242,0.047  c-0.039,0.012-0.082,0.023-0.129,0.031c-0.082,0.023-0.172,0.043-0.266,0.066c-0.199,0.059-0.943,0.254-1.122,0.301  c-0.016,0.004-0.031,0.008-0.047,0.012c-0.035,0.012-0.07,0.02-0.106,0.031c-0.07,0.02-0.137,0.039-0.203,0.059  c-0.164,0.047-0.317,0.098-0.446,0.137c-0.098,0.035-0.184,0.066-0.25,0.094c-0.063,0.027-0.121,0.055-0.184,0.086  c-0.027,0.012-0.059,0.027-0.09,0.039C12.866,46.218,15.267,36.359,20.871,28.603z M18.806,67.404l-0.078,0.031  c-0.008-0.012-0.016-0.02-0.02-0.031c-2.957-0.106-5.323-2.538-5.323-5.522c0-3.051,2.472-5.526,5.522-5.526  c3.054,0,5.526,2.476,5.526,5.526s-2.472,5.526-5.526,5.526C18.873,67.408,18.842,67.408,18.806,67.404z M56.938,84.948  c-0.004,0-0.004,0-0.008,0c-14.459,2.878-29.32-3.453-37.228-15.902c1.13-0.121,2.186-0.508,3.105-1.091  c7.212,10.771,20.259,16.289,33.012,13.962c0.074,0.524,0.196,1.04,0.403,1.56c0.02,0.055,0.039,0.11,0.059,0.16  c0.18,0.458,0.418,0.896,0.684,1.302C56.954,84.94,56.946,84.944,56.938,84.948z M57.134,77.06  c-0.637,0.555-1.216,1.768-1.177,2.781c0,0.066,0.004,0.129,0.012,0.192c-0.016-0.008-0.027-0.016-0.043-0.023  c-4.212-2.167-8.948-6.48-13.188-12.652c-7.56,1.545-13.72,1.142-18.37-0.665c0.724-0.802,1.263-1.756,1.572-2.777  c3.602,1.244,8.541,1.69,14.932,0.555c-1.545-2.546-2.996-5.354-4.298-8.409l0.012-0.008c-0.199-0.489-1.259-3.097-1.291-3.164  c-0.966-2.558-1.744-5.002-2.347-7.325c-5.041,3.461-8.15,7.028-9.938,10.313c-0.896-0.591-1.916-0.974-2.98-1.119  c2.194-4.314,6.125-8.6,12.151-12.519c-1.467-7.423-1.048-13.481,0.731-18.065c0.802,0.724,1.756,1.259,2.777,1.568  c-1.228,3.563-1.682,8.432-0.594,14.721c2.143-1.22,4.509-2.397,7.11-3.52v-0.008c0.078-0.031,3.125-1.263,3.207-1.298  c2.98-1.134,5.921-2.022,8.76-2.687c-3.5-5.159-7.122-8.322-10.45-10.133c0.591-0.896,0.974-1.916,1.119-2.984  c4.38,2.229,8.733,6.25,12.703,12.429c7.044-1.255,13.289-1.095,17.767,0.109c-0.712,0.974-1.177,2.131-1.314,3.391  c-3.547-0.708-8.659-1.029-14.545-0.305c1.107,1.995,2.178,4.173,3.207,6.551h0.008c0.027,0.082,1.259,3.129,1.298,3.211  c1.056,2.773,1.897,5.514,2.542,8.17c5.037-3.825,8.541-7.904,10.505-11.029c0.027-0.039,0.047-0.074,0.07-0.109  c0.074,0.117,0.168,0.231,0.285,0.344c0.004,0,0.004,0,0.004,0c0.634,0.626,1.869,1.158,2.851,1.04  c-2.19,4.282-6.602,9.105-12.933,13.407c1.341,7.356,1.15,13.86-0.16,18.424c-0.004,0.012-0.008,0.027-0.012,0.039  c-0.051-0.059-0.11-0.113-0.168-0.168c-0.004-0.004-0.008-0.004-0.012-0.008c-0.548-0.493-1.369-0.86-2.131-1.001  c-0.004,0-0.008-0.004-0.012-0.004h-0.004c-0.379-0.07-0.743-0.082-1.052-0.031c0.012-0.055,0.023-0.113,0.035-0.168  c0.763-3.594,1.122-8.917,0.34-15.073c-2.401,1.427-5.026,2.765-7.861,3.977l-0.008-0.016c-0.489,0.199-3.097,1.263-3.164,1.291  c-2.343,0.884-4.584,1.611-6.727,2.19c3.798,4.967,7.834,8.416,10.931,10.352c0.023,0.016,0.043,0.031,0.066,0.043  C57.278,76.939,57.204,76.993,57.134,77.06z M62.961,86.743c-3.051,0-5.522-2.472-5.522-5.526c0-3.051,2.472-5.522,5.522-5.522  s5.526,2.472,5.526,5.522C68.487,84.272,66.011,86.743,62.961,86.743z M69.868,79.868c-0.203-1.122-0.669-2.151-1.338-3.019  c9.511-7.662,15.378-21.025,13.403-33.286c1.122-0.141,2.163-0.548,3.054-1.15C87.518,56.281,80.885,71.424,69.868,79.868z"></path><g><path fill="currentColor" d="M50,8.02c23.185,0,41.98,18.795,41.98,41.98S73.185,91.98,50,91.98S8.02,73.185,8.02,50   S26.815,8.02,50,8.02 M50,5.02C25.198,5.02,5.02,25.198,5.02,50S25.198,94.98,50,94.98S94.98,74.802,94.98,50S74.802,5.02,50,5.02   L50,5.02z"></path></g></svg></g><path fill="#01ab12" fill-rule="nonzero" d="M2.30 19.61L0 19.61L0 0.17L1.85 0.17L7.37 13.08L7.37 0.17L9.62 0.17L9.62 19.61L7.90 19.61L2.30 6.34L2.30 19.61ZM16.30 19.80L16.30 19.80Q14.66 19.80 13.78 19.16Q12.89 18.53 12.54 17.29Q12.19 16.06 12.19 14.26L12.19 14.26L12.19 11.09Q12.19 9.24 12.55 8.02Q12.91 6.79 13.81 6.17Q14.71 5.54 16.30 5.54L16.30 5.54Q18.05 5.54 18.88 6.26Q19.70 6.98 19.97 8.34Q20.23 9.70 20.23 11.59L20.23 11.59L20.23 12.72L14.76 12.72L14.76 15.50Q14.76 16.34 14.92 16.87Q15.07 17.40 15.42 17.65Q15.77 17.90 16.32 17.90L16.32 17.90Q16.90 17.90 17.20 17.63Q17.50 17.35 17.60 16.84Q17.71 16.32 17.71 15.62L17.71 15.62L17.71 14.78L20.21 14.78L20.21 15.31Q20.21 17.40 19.32 18.60Q18.43 19.80 16.30 19.80ZM14.76 10.58L14.76 11.33L17.71 11.33L17.71 10.08Q17.71 9.22 17.62 8.63Q17.52 8.04 17.22 7.74Q16.92 7.44 16.27 7.44L16.27 7.44Q15.65 7.44 15.32 7.73Q15 8.02 14.88 8.70Q14.76 9.38 14.76 10.58L14.76 10.58ZM26.26 19.80L26.26 19.80Q25.18 19.80 24.52 19.39Q23.86 18.98 23.56 18.24Q23.26 17.50 23.26 16.49L23.26 16.49L23.26 7.44L21.79 7.44L21.79 5.74L23.26 5.74L23.26 1.68L25.82 1.68L25.82 5.74L28.06 5.74L28.06 7.44L25.82 7.44L25.82 16.32Q25.82 17.14 26.09 17.48Q26.35 17.83 27.10 17.83L27.10 17.83Q27.29 17.83 27.54 17.81Q27.79 17.78 28.03 17.76L28.03 17.76L28.03 19.66Q27.55 19.73 27.14 19.76Q26.74 19.80 26.26 19.80ZM33.86 19.61L31.56 19.61L29.33 5.74L31.44 5.74L32.88 15.96L34.73 5.74L36.70 5.74L38.54 15.91L39.98 5.74L42.10 5.74L39.79 19.61L37.63 19.61L35.74 9.82L33.86 19.61ZM47.88 19.80L47.88 19.80Q46.34 19.80 45.46 19.18Q44.57 18.55 44.20 17.40Q43.82 16.25 43.82 14.69L43.82 14.69L43.82 10.66Q43.82 9.10 44.20 7.94Q44.57 6.79 45.46 6.17Q46.34 5.54 47.88 5.54L47.88 5.54Q49.42 5.54 50.29 6.17Q51.17 6.79 51.54 7.94Q51.91 9.10 51.91 10.66L51.91 10.66L51.91 14.69Q51.91 16.25 51.54 17.40Q51.17 18.55 50.29 19.18Q49.42 19.80 47.88 19.80ZM47.88 17.90L47.88 17.90Q48.62 17.90 48.92 17.47Q49.22 17.04 49.28 16.33Q49.34 15.62 49.34 14.86L49.34 14.86L49.34 10.51Q49.34 9.72 49.28 9.02Q49.22 8.33 48.92 7.88Q48.62 7.44 47.88 7.44L47.88 7.44Q47.14 7.44 46.82 7.88Q46.51 8.33 46.45 9.02Q46.39 9.72 46.39 10.51L46.39 10.51L46.39 14.86Q46.39 15.62 46.45 16.33Q46.51 17.04 46.82 17.47Q47.14 17.90 47.88 17.90ZM56.90 19.61L54.34 19.61L54.34 5.74L56.90 5.74L56.90 7.70Q57.67 6.43 58.44 6Q59.21 5.57 59.98 5.57L59.98 5.57Q60.07 5.57 60.16 5.57Q60.24 5.57 60.38 5.59L60.38 5.59L60.38 8.42Q60.10 8.30 59.72 8.22Q59.35 8.14 58.97 8.14L58.97 8.14Q58.37 8.14 57.88 8.41Q57.38 8.69 56.90 9.48L56.90 9.48L56.90 19.61ZM64.58 19.58L62.02 19.58L62.02 0.14L64.58 0.14L64.58 11.74L68.33 5.74L71.02 5.74L67.75 11.16L70.92 19.61L68.35 19.61L65.76 12.50L64.58 14.28L64.58 19.58ZM82.61 19.85L82.61 19.85Q80.78 19.85 79.69 19.07Q78.60 18.29 78.11 16.80Q77.62 15.31 77.62 13.22L77.62 13.22L77.62 6.72Q77.62 4.58 78.06 3.08Q78.50 1.58 79.64 0.79Q80.78 0 82.82 0L82.82 0Q84.65 0 85.76 0.61Q86.88 1.22 87.38 2.48Q87.89 3.74 87.89 5.66L87.89 5.66L87.89 6.38L85.34 6.38L85.34 5.78Q85.34 4.51 85.18 3.71Q85.01 2.90 84.49 2.51Q83.98 2.11 82.87 2.11L82.87 2.11Q81.67 2.11 81.13 2.66Q80.59 3.22 80.46 4.16Q80.33 5.11 80.33 6.31L80.33 6.31L80.33 13.51Q80.33 14.90 80.53 15.84Q80.74 16.78 81.31 17.23Q81.89 17.69 82.94 17.69L82.94 17.69Q84 17.69 84.58 17.18Q85.15 16.68 85.37 15.70Q85.58 14.71 85.58 13.25L85.58 13.25L85.58 11.90L83.11 11.90L83.11 9.98L88.03 9.98L88.03 19.61L86.33 19.61L86.06 17.38Q85.68 18.46 84.86 19.15Q84.05 19.85 82.61 19.85ZM93.10 19.80L93.10 19.80Q92.28 19.80 91.66 19.33Q91.03 18.86 90.67 18.13Q90.31 17.40 90.31 16.58L90.31 16.58Q90.31 15.29 90.74 14.40Q91.18 13.51 91.93 12.90Q92.69 12.29 93.68 11.83Q94.68 11.38 95.78 10.94L95.78 10.94L95.78 9.96Q95.78 9.12 95.69 8.57Q95.59 8.02 95.29 7.74Q94.99 7.46 94.39 7.46L94.39 7.46Q93.86 7.46 93.54 7.70Q93.22 7.94 93.07 8.39Q92.93 8.83 92.93 9.43L92.93 9.43L92.93 10.13L90.38 10.03Q90.43 7.73 91.44 6.64Q92.45 5.54 94.56 5.54L94.56 5.54Q96.62 5.54 97.49 6.67Q98.35 7.80 98.35 9.94L98.35 9.94L98.35 16.27Q98.35 16.92 98.39 17.52Q98.42 18.12 98.48 18.64Q98.54 19.15 98.59 19.61L98.59 19.61L96.24 19.61Q96.17 19.22 96.06 18.64Q95.95 18.05 95.90 17.57L95.90 17.57Q95.66 18.38 94.98 19.09Q94.30 19.80 93.10 19.80ZM94.10 17.59L94.10 17.59Q94.49 17.59 94.82 17.38Q95.16 17.16 95.42 16.88Q95.69 16.61 95.78 16.44L95.78 16.44L95.78 12.50Q95.18 12.84 94.66 13.18Q94.13 13.51 93.73 13.88Q93.34 14.26 93.11 14.72Q92.88 15.19 92.88 15.79L92.88 15.79Q92.88 16.63 93.19 17.11Q93.50 17.59 94.10 17.59ZM103.56 19.61L100.99 19.61L100.99 5.74L103.56 5.74L103.56 19.61ZM103.56 3.67L100.99 3.67L100.99 0.98L103.56 0.98L103.56 3.67ZM108.89 19.61L106.32 19.61L106.32 5.74L108.89 5.74L108.89 7.10Q109.58 6.46 110.42 6Q111.26 5.54 112.27 5.54L112.27 5.54Q113.11 5.54 113.56 5.98Q114 6.41 114.18 7.06Q114.36 7.70 114.36 8.38L114.36 8.38L114.36 19.61L111.79 19.61L111.79 9.12Q111.79 8.38 111.58 7.97Q111.36 7.56 110.69 7.56L110.69 7.56Q110.26 7.56 109.79 7.81Q109.32 8.06 108.89 8.42L108.89 8.42L108.89 19.61Z" transform="translate(36, 8.196)"></path></svg>